HIERARCHY
ROOT Hips
{
	OFFSET	0.00	0.00	0.00
	CHANNELS 6 Xposition Yposition Zposition Zrotation Xrotation Yrotation
	JOINT Spine
	{
		OFFSET	 0.000000	 0.059888	 0.006665
		CHANNELS 3 Zrotation Xrotation Yrotation
		JOINT Chest
		{
			OFFSET	 0.000000	 0.125681	-0.015911
			CHANNELS 3 Zrotation Xrotation Yrotation
			JOINT UpperChest
			{
				OFFSET	 0.000000	 0.122768	-0.001652
				CHANNELS 3 Zrotation Xrotation Yrotation
				JOINT Neck
				{
					OFFSET	 0.000000	 0.155865	 0.008735
					CHANNELS 3 Zrotation Xrotation Yrotation
					JOINT Head
					{
						OFFSET	 0.000000	 0.095969	-0.000410
						CHANNELS 3 Zrotation Xrotation Yrotation
						JOINT LeftEye
						{
							OFFSET	 0.015267	 0.059218	 0.021494
							CHANNELS 3 Zrotation Xrotation Yrotation
							End Site
							{
								OFFSET	 0.015267	 0.059218	 0.021494
							}
						}
						JOINT RightEye
						{
							OFFSET	-0.015267	 0.059218	 0.021494
							CHANNELS 3 Zrotation Xrotation Yrotation
							End Site
							{
								OFFSET	-0.015267	 0.059218	 0.021494
							}
						}
					}
				}
				JOINT LeftShoulder
				{
					OFFSET	 0.025383	 0.124268	 0.007699
					CHANNELS 3 Zrotation Xrotation Yrotation
					JOINT LeftUpperArm
					{
						OFFSET	 0.136062	 0.000000	 0.000000
						CHANNELS 3 Zrotation Xrotation Yrotation
						JOINT LeftLowerArm
						{
							OFFSET	 0.225446	 0.000000	 0.000000
							CHANNELS 3 Zrotation Xrotation Yrotation
							JOINT LeftHand
							{
								OFFSET	 0.256325	 0.000003	 0.000015
								CHANNELS 3 Zrotation Xrotation Yrotation
								JOINT LeftIndexProximal
								{
									OFFSET	 0.074229	 0.008101	 0.022282
									CHANNELS 3 Zrotation Xrotation Yrotation
									JOINT LeftIndexIntermediate
									{
										OFFSET	 0.037712	 0.000000	-0.000001
										CHANNELS 3 Zrotation Xrotation Yrotation
										JOINT LeftIndexDistal
										{
											OFFSET	 0.023218	 0.000022	 0.000021
											CHANNELS 3 Zrotation Xrotation Yrotation
											End Site
											{
												OFFSET	 0.023218	 0.000022	 0.000021
											}
										}
									}
								}
								JOINT LeftLittleProximal
								{
									OFFSET	 0.069261	 0.008101	-0.033073
									CHANNELS 3 Zrotation Xrotation Yrotation
									JOINT LeftLittleIntermediate
									{
										OFFSET	 0.035643	 0.000000	 0.000000
										CHANNELS 3 Zrotation Xrotation Yrotation
										JOINT LeftLittleDistal
										{
											OFFSET	 0.020542	 0.000000	 0.000000
											CHANNELS 3 Zrotation Xrotation Yrotation
											End Site
											{
												OFFSET	 0.020542	 0.000000	 0.000000
											}
										}
									}
								}
								JOINT LeftMiddleProximal
								{
									OFFSET	 0.075240	 0.008101	 0.002320
									CHANNELS 3 Zrotation Xrotation Yrotation
									JOINT LeftMiddleIntermediate
									{
										OFFSET	 0.042007	 0.000000	 0.000000
										CHANNELS 3 Zrotation Xrotation Yrotation
										JOINT LeftMiddleDistal
										{
											OFFSET	 0.025915	 0.000000	 0.000000
											CHANNELS 3 Zrotation Xrotation Yrotation
											End Site
											{
												OFFSET	 0.025915	 0.000000	 0.000000
											}
										}
									}
								}
								JOINT LeftRingProximal
								{
									OFFSET	 0.074383	 0.008101	-0.015403
									CHANNELS 3 Zrotation Xrotation Yrotation
									JOINT LeftRingIntermediate
									{
										OFFSET	 0.038967	 0.000000	 0.000000
										CHANNELS 3 Zrotation Xrotation Yrotation
										JOINT LeftRingDistal
										{
											OFFSET	 0.022488	 0.000000	 0.000000
											CHANNELS 3 Zrotation Xrotation Yrotation
											End Site
											{
												OFFSET	 0.022488	 0.000000	 0.000000
											}
										}
									}
								}
								JOINT LeftThumbProximal
								{
									OFFSET	 0.003995	-0.010985	 0.018096
									CHANNELS 3 Zrotation Xrotation Yrotation
									JOINT LeftThumbIntermediate
									{
										OFFSET	 0.052819	-0.000008	-0.000074
										CHANNELS 3 Zrotation Xrotation Yrotation
										JOINT LeftThumbDistal
										{
											OFFSET	 0.032489	 0.000042	-0.000035
											CHANNELS 3 Zrotation Xrotation Yrotation
											End Site
											{
												OFFSET	 0.032489	 0.000042	-0.000035
											}
										}
									}
								}
							}
						}
					}
				}
				JOINT RightShoulder
				{
					OFFSET	-0.025383	 0.124268	 0.007699
					CHANNELS 3 Zrotation Xrotation Yrotation
					JOINT RightUpperArm
					{
						OFFSET	-0.136062	 0.000000	 0.000000
						CHANNELS 3 Zrotation Xrotation Yrotation
						JOINT RightLowerArm
						{
							OFFSET	-0.225446	 0.000000	 0.000000
							CHANNELS 3 Zrotation Xrotation Yrotation
							JOINT RightHand
							{
								OFFSET	-0.256325	 0.000003	 0.000015
								CHANNELS 3 Zrotation Xrotation Yrotation
								JOINT RightIndexProximal
								{
									OFFSET	-0.074229	 0.008101	 0.022282
									CHANNELS 3 Zrotation Xrotation Yrotation
									JOINT RightIndexIntermediate
									{
										OFFSET	-0.037712	 0.000000	-0.000001
										CHANNELS 3 Zrotation Xrotation Yrotation
										JOINT RightIndexDistal
										{
											OFFSET	-0.023218	 0.000022	 0.000021
											CHANNELS 3 Zrotation Xrotation Yrotation
											End Site
											{
												OFFSET	-0.023218	 0.000022	 0.000021
											}
										}
									}
								}
								JOINT RightLittleProximal
								{
									OFFSET	-0.069261	 0.008101	-0.033073
									CHANNELS 3 Zrotation Xrotation Yrotation
									JOINT RightLittleIntermediate
									{
										OFFSET	-0.035643	 0.000000	 0.000000
										CHANNELS 3 Zrotation Xrotation Yrotation
										JOINT RightLittleDistal
										{
											OFFSET	-0.020542	 0.000000	 0.000000
											CHANNELS 3 Zrotation Xrotation Yrotation
											End Site
											{
												OFFSET	-0.020542	 0.000000	 0.000000
											}
										}
									}
								}
								JOINT RightMiddleProximal
								{
									OFFSET	-0.075240	 0.008101	 0.002320
									CHANNELS 3 Zrotation Xrotation Yrotation
									JOINT RightMiddleIntermediate
									{
										OFFSET	-0.042007	 0.000000	 0.000000
										CHANNELS 3 Zrotation Xrotation Yrotation
										JOINT RightMiddleDistal
										{
											OFFSET	-0.025915	 0.000000	 0.000000
											CHANNELS 3 Zrotation Xrotation Yrotation
											End Site
											{
												OFFSET	-0.025915	 0.000000	 0.000000
											}
										}
									}
								}
								JOINT RightRingProximal
								{
									OFFSET	-0.074383	 0.008101	-0.015403
									CHANNELS 3 Zrotation Xrotation Yrotation
									JOINT RightRingIntermediate
									{
										OFFSET	-0.038967	 0.000000	 0.000000
										CHANNELS 3 Zrotation Xrotation Yrotation
										JOINT RightRingDistal
										{
											OFFSET	-0.022488	 0.000000	 0.000000
											CHANNELS 3 Zrotation Xrotation Yrotation
											End Site
											{
												OFFSET	-0.022488	 0.000000	 0.000000
											}
										}
									}
								}
								JOINT RightThumbProximal
								{
									OFFSET	-0.003995	-0.010985	 0.018096
									CHANNELS 3 Zrotation Xrotation Yrotation
									JOINT RightThumbIntermediate
									{
										OFFSET	-0.052819	-0.000008	-0.000074
										CHANNELS 3 Zrotation Xrotation Yrotation
										JOINT RightThumbDistal
										{
											OFFSET	-0.032489	 0.000042	-0.000035
											CHANNELS 3 Zrotation Xrotation Yrotation
											End Site
											{
												OFFSET	-0.032489	 0.000042	-0.000035
											}
										}
									}
								}
							}
						}
					}
				}
			}
		}
	}
	JOINT LeftUpperLeg
	{
		OFFSET	 0.087143	-0.045243	 0.001548
		CHANNELS 3 Zrotation Xrotation Yrotation
		JOINT LeftLowerLeg
		{
			OFFSET	 0.000000	-0.394431	-0.000001
			CHANNELS 3 Zrotation Xrotation Yrotation
			JOINT LeftFoot
			{
				OFFSET	 0.000000	-0.466446	 0.003058
				CHANNELS 3 Zrotation Xrotation Yrotation
				JOINT LeftToes
				{
					OFFSET	 0.000000	-0.079218	 0.140851
					CHANNELS 3 Zrotation Xrotation Yrotation
					End Site
					{
						OFFSET	 0.000000	-0.079218	 0.140851
					}
				}
			}
		}
	}
	JOINT RightUpperLeg
	{
		OFFSET	-0.087143	-0.045243	 0.001548
		CHANNELS 3 Zrotation Xrotation Yrotation
		JOINT RightLowerLeg
		{
			OFFSET	 0.000000	-0.394431	-0.000001
			CHANNELS 3 Zrotation Xrotation Yrotation
			JOINT RightFoot
			{
				OFFSET	 0.000000	-0.466446	 0.003058
				CHANNELS 3 Zrotation Xrotation Yrotation
				JOINT RightToes
				{
					OFFSET	 0.000000	-0.079218	 0.140851
					CHANNELS 3 Zrotation Xrotation Yrotation
					End Site
					{
						OFFSET	 0.000000	-0.079218	 0.140851
					}
				}
			}
		}
	}
}
MOTION
Frames:    4
Frame Time: 0.03333334
-0.001711	 1.047965	-0.003117	-3.006588	 9.391829	 16.843720	 1.413683	 4.979805	-7.572983	 0.499996	-1.883771	-0.077278	 0.000004	-12.397250	 0.000015	-0.484801	 14.855570	 0.202405	 1.819116	 2.124672	 6.469790	-1.701262	 3.587029	 21.748080	 1.701262	 3.587039	-21.748070	 11.202500	-0.028460	 10.223400	-3.944000	 3.999119	-32.123740	-14.240530	-17.773800	-116.787600	 4.671755	 9.874095	-12.865350	-0.012967	 0.667629	 1.112118	-1.679194	 1.282879	 0.674526	-0.334984	 1.286472	-0.711007	 0.000005	-0.000042	 0.000001	 0.000003	 0.000000	 0.000000	 0.890204	-0.008562	-1.101182	 0.000000	-0.000008	-0.000006	 0.000003	 0.000039	-0.000013	 0.000003	 0.000039	-0.000013	 0.000000	 0.000014	 0.000004	 0.000003	 0.000000	 0.000000	-0.712572	-0.008159	 1.310742	 86.198970	 49.487950	-89.646780	-2.573035	-0.739925	 0.463022	 4.590282	-0.705078	-0.717109	 7.710145	 0.012599	-11.541570	-4.225011	 6.504014	 36.374730	 16.505050	-17.701750	 125.664600	 2.220431	 7.199960	 21.766130	 0.012969	 0.667629	-1.112118	 1.679193	 1.282880	-0.674527	 0.334982	 1.286472	 0.711007	-0.000005	-0.000043	-0.000001	-0.000003	 0.000000	 0.000000	-0.890204	-0.008562	 1.101182	 0.000000	-0.000008	 0.000006	-0.000003	 0.000039	 0.000013	-0.000003	 0.000039	 0.000013	 0.000000	 0.000014	-0.000004	-0.000003	 0.000000	 0.000000	 0.712572	-0.008159	-1.310742	-86.198980	 49.487950	 89.646800	 2.573038	-0.739921	-0.463021	-4.590279	-0.705076	 0.717109	-5.748551	-9.839749	-0.985613	 10.860910	 20.737840	-23.506210	 8.054611	-8.779643	 44.088110	 0.000000	 0.248285	 0.000000	-4.725415	-14.302140	-1.169804	 4.045712	 25.277740	-8.523332	-3.446927	-15.090560	-13.340360	 0.000000	 0.248285	 0.000000
-0.002944	 1.046983	-0.005374	-2.557559	 9.207615	 16.499530	 0.901191	 5.094928	-6.746219	 0.082079	-1.838641	-0.146829	 0.000004	-12.397250	 0.000014	-0.364668	 15.324280	 0.193752	 2.410776	 2.043784	 6.166046	-1.701262	 3.587029	 21.748080	 1.701262	 3.587039	-21.748070	 10.923570	-0.136943	 10.944970	-2.737922	 3.882152	-32.098870	-16.508140	-22.240450	-113.158600	 6.803923	 9.035467	-15.047810	-0.012967	 0.667629	 1.112118	-1.679194	 1.282879	 0.674526	-0.334984	 1.286472	-0.711007	 0.000005	-0.000042	 0.000001	 0.000003	 0.000000	 0.000000	 0.890204	-0.008562	-1.101182	 0.000000	-0.000008	-0.000006	 0.000003	 0.000039	-0.000013	 0.000003	 0.000039	-0.000013	 0.000000	 0.000014	 0.000004	 0.000003	 0.000000	 0.000000	-0.712572	-0.008159	 1.310742	 86.198970	 49.487950	-89.646780	-2.573035	-0.739925	 0.463022	 4.590282	-0.705078	-0.717109	 7.112225	-0.097151	-12.087300	-4.681691	 6.439730	 34.441600	 18.254010	-19.664220	 126.137000	 3.585034	 6.353570	 22.766680	 0.012969	 0.667629	-1.112118	 1.679193	 1.282880	-0.674527	 0.334982	 1.286472	 0.711007	-0.000005	-0.000043	-0.000001	-0.000003	 0.000000	 0.000000	-0.890204	-0.008562	 1.101182	 0.000000	-0.000008	 0.000006	-0.000003	 0.000039	 0.000013	-0.000003	 0.000039	 0.000013	 0.000000	 0.000014	-0.000004	-0.000003	 0.000000	 0.000000	 0.712572	-0.008159	-1.310742	-86.198980	 49.487950	 89.646800	 2.573038	-0.739921	-0.463021	-4.590279	-0.705076	 0.717109	-6.087276	-9.602617	-1.019177	 10.692440	 20.699910	-23.006930	 8.027794	-8.688506	 44.301430	 0.000000	 0.248285	 0.000000	-5.047102	-14.164240	-1.238017	 3.901282	 25.273970	-8.206161	-3.422834	-15.001640	-13.326180	 0.000000	 0.248285	 0.000000
-0.004303	 1.046688	-0.007053	-2.042145	 9.113224	 16.087200	 0.409327	 5.454234	-6.019713	-0.346809	-1.532345	-0.227018	 0.000003	-12.397250	 0.000012	-0.184810	 16.215610	 0.187382	 2.587757	 2.413545	 5.551867	-1.701262	 3.587029	 21.748080	 1.701262	 3.587039	-21.748070	 11.179140	-0.515419	 12.388270	-2.077529	 4.130946	-32.192300	-19.371050	-31.047430	-105.581400	 10.072180	 9.204460	-17.847970	-0.012967	 0.667629	 1.112118	-1.679194	 1.282879	 0.674526	-0.334984	 1.286472	-0.711007	 0.000005	-0.000042	 0.000001	 0.000003	 0.000000	 0.000000	 0.890204	-0.008562	-1.101182	 0.000000	-0.000008	-0.000006	 0.000003	 0.000039	-0.000013	 0.000003	 0.000039	-0.000013	 0.000000	 0.000014	 0.000004	 0.000003	 0.000000	 0.000000	-0.712572	-0.008159	 1.310742	 86.198970	 49.487950	-89.646780	-2.573035	-0.739925	 0.463022	 4.590282	-0.705078	-0.717109	 6.617806	-0.474804	-13.338590	-5.081225	 6.695446	 32.435650	 20.299150	-23.977420	 127.028000	 4.327425	 6.089982	 21.667580	 0.012969	 0.667629	-1.112118	 1.679193	 1.282880	-0.674527	 0.334982	 1.286472	 0.711007	-0.000005	-0.000043	-0.000001	-0.000003	 0.000000	 0.000000	-0.890204	-0.008562	 1.101182	 0.000000	-0.000008	 0.000006	-0.000003	 0.000039	 0.000013	-0.000003	 0.000039	 0.000013	 0.000000	 0.000014	-0.000004	-0.000003	 0.000000	 0.000000	 0.712572	-0.008159	-1.310742	-86.198980	 49.487950	 89.646800	 2.573038	-0.739921	-0.463021	-4.590279	-0.705076	 0.717109	-6.510168	-9.489834	-1.077874	 10.474140	 20.744070	-22.433140	 8.059801	-8.665073	 44.497310	 0.000000	 0.248285	 0.000000	-5.438602	-14.173250	-1.335410	 3.717399	 25.365030	-7.799020	-3.425856	-15.003760	-13.335720	 0.000000	 0.248285	 0.000000
-0.004914	 1.047252	-0.007583	-1.708039	 9.047729	 15.739090	 0.131081	 5.887163	-5.531985	-0.595265	-1.122781	-0.288362	 0.000003	-12.397250	 0.000013	-0.105470	 17.367710	 0.200099	 2.983498	 2.962776	 5.076813	-1.701262	 3.587029	 21.748080	 1.701262	 3.587039	-21.748070	 11.909920	-1.033407	 14.159040	-1.936081	 4.564134	-32.372840	-21.876600	-44.326190	-92.385280	 13.595110	 11.011610	-20.951010	-0.012967	 0.667629	 1.112118	-1.679194	 1.282879	 0.674526	-0.334984	 1.286472	-0.711007	 0.000005	-0.000042	 0.000001	 0.000003	 0.000000	 0.000000	 0.890204	-0.008562	-1.101182	 0.000000	-0.000008	-0.000006	 0.000003	 0.000039	-0.000013	 0.000003	 0.000039	-0.000013	 0.000000	 0.000014	 0.000004	 0.000003	 0.000000	 0.000000	-0.712572	-0.008159	 1.310742	 86.198970	 49.487950	-89.646780	-2.573035	-0.739925	 0.463022	 4.590282	-0.705078	-0.717109	 6.296909	-0.992149	-14.922620	-5.412693	 7.417691	 29.862700	 22.998940	-30.570170	 126.878600	 3.905491	 6.580698	 20.406690	 0.012969	 0.667629	-1.112118	 1.679193	 1.282880	-0.674527	 0.334982	 1.286472	 0.711007	-0.000005	-0.000043	-0.000001	-0.000003	 0.000000	 0.000000	-0.890204	-0.008562	 1.101182	 0.000000	-0.000008	 0.000006	-0.000003	 0.000039	 0.000013	-0.000003	 0.000039	 0.000013	 0.000000	 0.000014	-0.000004	-0.000003	 0.000000	 0.000000	 0.712572	-0.008159	-1.310742	-86.198980	 49.487950	 89.646800	 2.573038	-0.739921	-0.463021	-4.590279	-0.705076	 0.717109	-6.801816	-9.493408	-1.127015	 10.235290	 20.825840	-21.840460	 8.075026	-8.646637	 44.615530	 0.000000	 0.248285	 0.000000	-5.738983	-14.302590	-1.422209	 3.618943	 25.448880	-7.577535	-3.368155	-15.023280	-13.101910	 0.000000	 0.248285	 0.000000
